<?xml version="1.0"?>
<svg xmlns="http://www.w3.org/2000/svg" xmlns:xlink="http://www.w3.org/1999/xlink" xmlns:svgjs="http://svgjs.com/svgjs" version="1.1" width="512" height="512" x="0" y="0" viewBox="0 0 512 512" style="enable-background:new 0 0 512 512" xml:space="preserve" class=""><circle r="256" cx="256" cy="256" fill="#6e3aff" shape="circle" transform="matrix(0.62,0,0,0.62,97.28,97.28)"/><g transform="matrix(0.92,1.1266750552155652e-16,-1.1266750552155644e-16,0.9199999999999999,20.480001220703286,20.47999999999996)"><g xmlns="http://www.w3.org/2000/svg" id="M_1_"><g><path d="m496 512h-117.395v-268.463l-65.707 268.463h-114.124l-65.38-268.047v268.047h-117.394v-512h167.42l72.815 283.753 71.994-283.753h167.771zm-87.395-30h57.395v-452h-114.432l-80.711 318.111-29.069.039-81.641-318.15h-114.147v452h57.394v-362.844l29.573-3.554 89.369 366.398h67.019l89.68-366.411 29.57 3.566z" fill="#000000" data-original="#000000" style="" class=""/></g></g></g></svg>
