<svg xmlns="http://www.w3.org/2000/svg">
<defs>
<font horiz-adv-x="1264" ><font-face
    font-family="Typo Round Bold Demo"
    units-per-em="2048"
    panose-1="2 0 5 0 0 0 0 0 0 0"
    ascent="2064"
    descent="-507"
    alphabetic="0" />
<missing-glyph horiz-adv-x="1547" d="M100 -282V1428H1435V-282H100ZM135 -242H1399V1398H135V-242ZM725 471H728L739 470V452Q741 382 741 326L734 324H728Q725 395 725 462V465V471ZM1224 471H1225L1239 470Q1238 461 1238 457Q1238 402 1241 326L1230 324H1226Q1224
382 1223 453Q1224 465 1224 471ZM790 466H794Q794 464 801 454Q797 436 797 424V406Q797 362 812 348H813Q834 348 848 465H850Q862 461 863 461Q857 403 857 375Q857 344 869 344Q871 328 871 324H863Q850 324 843 356H842Q831 328 815 328H810Q790 328 783 389Q782
393 782 411V422Q782 447 790 466ZM1094 466H1100Q1112 466 1128 438Q1140 416 1140 394V385Q1140 348 1100 327Q1093 324 1086 324H1079Q1049 324 1044 367V376Q1044 426 1084 464Q1092 466 1094 466ZM249 462H258Q286 457 286 422Q286 388 253 373Q241 368 226
366V329H225Q220 329 211 332V366H206L201 367Q201 378 206 386H211V386Q211 427 205 427Q199 434 199 438Q217 462 249 462ZM1059 376V368Q1059 347 1084 344Q1106 344 1121 371Q1126 379 1126 389V392Q1126 419 1100 445Q1097 445 1097 447Q1080 447 1062 397Q1059
386 1059 376ZM224 435Q225 400 225 388Q226 388 226 386Q255 392 263 403Q271 413 271 421Q271 439 256 442H250Q224 439 224 435ZM404 438Q423 438 432 389Q431 389 417 385Q411 418 404 418Q387 409 384 343Q385 329 385 328Q375 326 370 326Q357 395 357 413Q369
415 372 415V414Q372 410 375 395H376Q386 438 404 438ZM537 432Q557 432 570 400Q572 391 572 383V380Q572 344 537 327Q532 326 528 326Q501 330 501 364Q501 414 526 429Q528 430 537 432ZM614 432Q633 432 650 343Q651 343 651 336Q643 329 639 329Q624 391
616 409Q607 396 598 339Q597 339 593 329H586Q579 329 577 386Q575 400 575 409Q582 411 589 411Q592 394 592 391H593Q600 432 614 432ZM1185 432Q1201 432 1220 336Q1211 329 1207 329Q1192 395 1183 409Q1177 397 1164 335Q1161 329 1160 329H1154Q1147 329

<glyph unicode=" " glyph-name="space" horiz-adv-x="611" />
<glyph unicode="!" glyph-name="exclam" horiz-adv-x="480" d="M362 848L327 394H152L117 848V1441Q117 1491 153 1527Q189 1562 238 1562H241Q290 1562 326 1527Q362 1491 362 1441V848ZM240 0Q182 0 141 41Q100 82 100 140Q100 197 141 238Q182 279 240 279Q297
279 338 238Q380 198 380 140Q380 81 338 41Q297 0 240 0Z" />
<glyph unicode="&quot;" glyph-name="quotedbl" horiz-adv-x="661" d="M295 1318L259 986H86L50 1318V1442Q50 1492 86 1528Q122 1563 171 1563H174Q223 1563 259 1528Q295 1492 295 1442V1318ZM611 1318L575 986H402L366 1318V1442Q366 1492 402 1528Q438 1563
487 1563H490Q539 1563 575 1528Q611 1492 611 1442V1318Z" />
<glyph unicode="#" glyph-name="numbersign" horiz-adv-x="1412" d="M333 660L380 893H205Q160 893 127 926Q95 959 95 1004V1006Q95 1051 127 1084Q160 1117 205 1117H425L475 1363Q484 1408 523 1433Q551 1451 584 1451Q596 1451 609 1449L611 1448Q651 1440
678 1403Q696 1374 696 1342Q696 1330 694 1318L654 1117H880L930 1363Q939 1408 978 1433Q1006 1451 1038 1451Q1050 1451 1062 1449L1065 1448Q1107 1440 1133 1403Q1151 1374 1151 1342Q1151 1330 1149 1318L1109 1117H1287Q1333 1117 1364 1084Q1397 1051 1397
1006V1004Q1397 959 1364 926Q1333 893 1287 893H1064L1017 660H1207Q1254 660 1285 627Q1318 594 1318 549V546Q1318 502 1285 469Q1254 436 1207 436H972L918 171Q910 126 871 101Q843 83 811 83Q799 83 787 85L784 86Q742 94 716 132Q697 160 697 192Q697 204
700 216L743 436H517L463 171Q455 126 416 101Q388 83 354 83Q342 83 329 85L327 86Q287 94 261 132Q242 160 242 192Q242 204 245 216L288 436H126Q80 436 47 469Q15 502 15 546V549Q15 594 47 627Q80 660 126 660H333ZM609 893L562 660H788L835 893H609Z" />
<glyph unicode="$" glyph-name="dollar" horiz-adv-x="1041" d="M649 265Q665 272 700 325Q736 379 736 444Q736 580 649 615V265ZM390 1298Q375 1291 340 1238Q305 1185 305 1120Q305 985 390 950V1298ZM559 1712Q570 1716 585 1716Q649 1716 649 1634V1563Q747
1540 838 1454Q929 1367 963 1247Q968 1230 968 1215Q968 1180 945 1149Q911 1104 855 1104H834Q751 1104 726 1183Q697 1278 649 1299V872Q791 835 868 762Q981 655 981 444Q981 282 879 156Q780 32 649 1V-70Q649 -152 585 -152Q570 -152 559 -148V1712ZM482
-147Q470 -152 454 -152Q390 -152 390 -70V2Q292 26 202 111Q111 198 78 317Q73 334 73 351Q73 385 96 415Q130 460 186 460H207Q290 460 315 381Q343 288 390 266V694Q248 730 172 803Q60 910 60 1120Q60 1281 161 1408Q259 1531 390 1563V1634Q390 1716 454 1716Q470
1716 482 1711V-147Z" />
<glyph unicode="%" glyph-name="percent" horiz-adv-x="1511" d="M1161 1562L563 0H350L948 1562H1161ZM1115 436Q1068 436 1034 402Q1001 369 1001 321V301Q1001 253 1034 220Q1068 186 1115 186Q1162 186 1196 220Q1230 254 1230 301V321Q1230 368 1196 402Q1162
436 1115 436ZM1115 622Q1237 622 1324 535Q1411 448 1411 326V296Q1411 174 1324 87Q1237 0 1115 0Q994 0 906 87Q819 174 819 296V326Q819 448 906 535Q994 622 1115 622ZM396 1376Q348 1376 315 1343Q281 1309 281 1262V1241Q281 1194 315 1160Q349 1126 396
1126Q443 1126 477 1160Q510 1193 510 1241V1262Q510 1309 477 1343Q443 1376 396 1376ZM396 1562Q518 1562 605 1475Q692 1388 692 1267V1236Q692 1114 605 1027Q518 940 396 940Q274 940 187 1027Q100 1114 100 1236V1267Q100 1388 187 1475Q274 1562 396 1562Z"
/>
<glyph unicode="&amp;" glyph-name="ampersand" horiz-adv-x="1341" d="M867 682H563Q473 682 409 618Q345 554 345 463Q345 372 409 308Q473 245 563 245H648Q738 245 802 308Q866 372 866 493H867V682ZM1205 913Q1252 913 1283 880Q1316 847 1316 802V799Q1316
754 1283 721Q1251 689 1205 689H1092V294Q1092 265 1112 245Q1133 225 1162 225H1205Q1251 225 1284 192Q1316 159 1316 114V111Q1316 66 1284 33Q1251 0 1205 0H1182Q1018 0 945 106Q835 0 648 0H563Q372 0 236 136Q100 272 100 463Q100 692 252 808Q123 916
123 1122Q123 1304 252 1433Q381 1562 563 1562H713Q863 1562 1005 1453L862 1252Q783 1318 713 1318H563Q483 1318 425 1260Q368 1203 368 1112Q368 1020 425 963Q482 907 563 907H867V1142L1092 1231V913H1205Z" />
<glyph unicode="&apos;" glyph-name="quotesingle" horiz-adv-x="445" d="M345 1318L309 986H136L100 1318V1442Q100 1492 136 1528Q172 1563 221 1563H224Q273 1563 309 1528Q345 1492 345 1442V1318Z" />
<glyph unicode="(" glyph-name="parenleft" horiz-adv-x="707" d="M340 -367T222 -220Q100 -71 100 121V1029Q100 1221 222 1370Q340 1517 523 1558Q539 1562 554 1562Q594 1562 627 1534Q673 1499 673 1439V1431Q673 1387 646 1354Q620 1321 577 1312Q474 1289
406 1209Q336 1126 336 1023V127Q336 24 406 -59Q474 -139 577 -162Q620 -171 646 -204Q673 -237 673 -281V-290Q673 -348 627 -385Q593 -411 553 -411Q538 -411 523 -408Q340 -367 222 -220Z" />
<glyph unicode=")" glyph-name="parenright" horiz-adv-x="707" d="M183 -408Q167 -412 152 -412Q113 -412 80 -385Q34 -348 34 -290V-281Q34 -237 61 -204Q87 -171 130 -162Q233 -139 301 -59Q371 24 371 127V1023Q371 1126 301 1209Q233 1289 130 1312Q87 1321
61 1354Q34 1387 34 1431V1439Q34 1499 80 1534Q113 1562 153 1562Q167 1562 183 1558Q366 1517 485 1370Q607 1221 607 1029V121Q607 -71 485 -220Q366 -367 183 -408Z" />
<glyph unicode="*" glyph-name="asterisk" horiz-adv-x="977" d="M489 1394Q536 1394 568 1361Q600 1328 600 1283V1153L724 1192Q742 1198 761 1198Q785 1198 809 1187Q850 1165 863 1123L864 1121Q870 1103 870 1085Q870 1060 858 1036Q838 995 794 980L670
939L747 834Q767 805 767 771Q767 762 766 753Q759 706 724 681L722 679Q690 657 654 657Q646 657 638 658Q591 665 565 703L488 808L412 703Q385 665 340 658Q332 657 325 657Q287 657 251 682L250 684Q218 706 211 753Q210 762 210 771Q210 806 231 835L307 939L183
980Q140 995 119 1035Q106 1060 106 1086Q106 1103 112 1121L113 1123Q126 1165 168 1187Q193 1199 218 1199Q235 1199 252 1194L376 1153V1283Q376 1328 409 1361Q442 1394 487 1394H489Z" />
<glyph unicode="+" glyph-name="plus" horiz-adv-x="1152" d="M699 904H980Q1030 904 1066 868Q1102 832 1102 782V780Q1102 729 1066 695Q1030 659 980 659H699V378Q699 328 663 292Q627 256 577 256H575Q524 256 490 292Q454 328 454 378V659H171Q120 659 86
695Q50 729 50 780V782Q50 832 86 868Q120 904 171 904H454V1187Q454 1238 490 1272Q524 1308 575 1308H577Q627 1308 663 1272Q699 1238 699 1187V904Z" />
<glyph unicode="," glyph-name="comma" horiz-adv-x="441" d="M288 241Q324 241 345 209Q356 192 356 174Q356 159 349 144L220 -143Q202 -184 158 -184H92Q58 -184 37 -157Q23 -138 23 -117Q23 -108 26 -98L104 189Q116 241 169 241H288Z" />
<glyph unicode="-" glyph-name="hyphen" horiz-adv-x="872" d="M822 780Q822 729 786 695Q750 659 700 659H171Q120 659 86 695Q50 729 50 780V782Q50 832 86 868Q120 904 171 904H700Q750 904 786 868Q822 832 822 782V780Z" />
<glyph unicode="." glyph-name="period" horiz-adv-x="1547" d="M100 -282V1428H1435V-282H100ZM135 -242H1399V1398H135V-242ZM725 471H728L739 470V452Q741 382 741 326L734 324H728Q725 395 725 462V465V471ZM1224 471H1225L1239 470Q1238 461 1238 457Q1238
402 1241 326L1230 324H1226Q1224 382 1223 453Q1224 465 1224 471ZM790 466H794Q794 464 801 454Q797 436 797 424V406Q797 362 812 348H813Q834 348 848 465H850Q862 461 863 461Q857 403 857 375Q857 344 869 344Q871 328 871 324H863Q850 324 843 356H842Q831
328 815 328H810Q790 328 783 389Q782 393 782 411V422Q782 447 790 466ZM1094 466H1100Q1112 466 1128 438Q1140 416 1140 394V385Q1140 348 1100 327Q1093 324 1086 324H1079Q1049 324 1044 367V376Q1044 426 1084 464Q1092 466 1094 466ZM249 462H258Q286 457
286 422Q286 388 253 373Q241 368 226 366V329H225Q220 329 211 332V366H206L201 367Q201 378 206 386H211V386Q211 427 205 427Q199 434 199 438Q217 462 249 462ZM1059 376V368Q1059 347 1084 344Q1106 344 1121 371Q1126 379 1126 389V392Q1126 419 1100 445Q1097
445 1097 447Q1080 447 1062 397Q1059 386 1059 376ZM224 435Q225 400 225 388Q226 388 226 386Q255 392 263 403Q271 413 271 421Q271 439 256 442H250Q224 439 224 435ZM404 438Q423 438 432 389Q431 389 417 385Q411 418 404 418Q387 409 384 343Q385 329 385
328Q375 326 370 326Q357 395 357 413Q369 415 372 415V414Q372 410 375 395H376Q386 438 404 438ZM537 432Q557 432 570 400Q572 391 572 383V380Q572 344 537 327Q532 326 528 326Q501 330 501 364Q501 414 526 429Q528 430 537 432ZM614 432Q633 432 650 343Q651
343 651 336Q643 329 639 329Q624 391 616 409Q607 396 598 339Q597 339 593 329H586Q579 329 577 386Q575 400 575 409Q582 411 589 411Q592 394 592 391H593Q600 432 614 432ZM1185 432Q1201 432 1220 336Q1211 329 1207 329Q1192 395 1183 409Q1177 397 1164
335Q1161 329 1160 329H1154Q1147 329 1144 409Q1150 411 1159 411Q1160 392 1160 389H1161Q1168 432 1185 432ZM472 430Q490 425 490 413V412Q490 410 480 404H479Q475 411 466 411Q453 411 450 400Q450 395 479 394Q499 383 499 360Q499 335 479 326L471 324H466Q442
324 432 347V348Q433 351 441 359H442Q454 344 470 344Q484 348 484 360Q480 375 463 375Q435 375 435 397V400Q435 430 472 430ZM912 430Q925 430 932 412V411Q921 404 918 404Q918 410 907 411Q895 411 890 401V400Q890 395 919 394Q938 385 938 358Q938 332
914 324H906Q883 324 871 347V348Q879 359 881 359H882Q894 344 909 344Q923 348 923 360Q923 372 907 375Q882 375 877 386Q875 397 875 400Q875 430 912 430ZM1249 429V429Q1262 427 1263 427Q1262 409 1262 401V392Q1264 357 1275 357H1276Q1294 370 1294 424V424H1309V421Q1316
343 1316 333Q1316 287 1286 277Q1284 277 1281 277H1276Q1258 277 1253 296Q1252 301 1252 306V306Q1252 321 1255 321H1256Q1265 315 1268 315L1267 306Q1267 298 1276 297H1278Q1301 297 1301 339Q1301 344 1300 360H1299Q1291 336 1273 336H1272Q1253 336 1247
383V400Q1247 410 1249 429ZM331 428Q354 424 354 406V400Q354 380 315 364H305Q305 353 322 348Q333 348 343 366H347Q355 354 355 351Q338 329 325 329H318Q292 329 288 374Q288 414 320 427L331 428ZM681 428H692Q719 419 719 383Q718 362 718 348Q718 348 720
332Q711 324 707 324H706L704 335Q692 327 681 327H674Q652 330 652 348V356Q652 386 684 391Q695 390 704 385V386Q700 411 687 411Q678 411 669 401H666Q664 402 658 412V414Q670 428 681 428ZM983 428Q1007 424 1007 405Q1007 376 965 364H958V362Q965 348 974
348Q984 348 997 366H998Q999 366 1007 354Q1007 345 986 332Q982 329 977 329H970Q946 329 941 373Q941 413 971 427L983 428ZM516 365Q518 347 528 347H531Q555 354 557 382V385Q551 411 537 411H535Q522 411 517 379Q516 372 516 365ZM305 385Q324 385 338 403V405Q331
407 329 407Q313 407 305 388V385ZM958 385H961Q978 385 992 404Q986 407 983 407H980Q964 407 958 386V385ZM667 354V351Q667 348 677 345Q694 345 702 362Q694 369 683 369Q667 366 667 354ZM618 254Q631 254 633 220V217L627 216H625Q622 237 617 237Q611 237
609 218Q610 216 610 214Q610 204 612 175Q617 178 621 178H624V163L613 160Q618 103 618 91H607Q603 145 603 156H602Q597 154 592 154V171Q598 171 602 173Q599 194 599 225Q602 254 616 254H618ZM816 254Q828 254 832 217L824 216H822V217Q822 232 815 237Q807
232 807 222Q807 214 810 176Q810 176 810 175Q815 178 820 178H821L822 170V163Q821 163 810 160L812 157Q812 145 816 91H805Q805 97 801 156Q792 154 789 154V171L800 172Q797 218 797 224Q797 254 816 254ZM709 237H713H719V228Q719 167 722 96H711Q709 161
709 198V237ZM735 237H736H744V207Q744 175 747 96H736Q733 162 733 232V235Q733 237 735 237ZM529 234Q537 232 539 232Q537 203 537 190H539L551 192V175Q550 175 537 173L541 99L539 97H531Q528 126 526 172H513V188L524 189H526V207Q526 234 529 234ZM994 234Q997
234 1006 232Q1003 219 1003 203V190H1006L1018 192V175H1015L1003 173L1008 99L1003 97H997Q994 159 994 172H979L980 180V188L991 189H992V190Q992 211 994 234ZM1140 234Q1143 234 1152 232Q1150 214 1150 198V190H1152L1164 192V184V175Q1163 175 1150 173V167Q1150
152 1154 99L1152 97H1143L1139 172H1126V188L1137 189H1138L1140 234ZM404 231H414Q428 231 437 208Q431 202 431 199H428Q419 214 407 214Q390 214 372 188Q363 169 363 154V149Q363 120 387 114Q389 113 395 113Q426 116 426 133V143Q422 146 414 146H404V163Q432
163 437 154Q439 147 439 145Q437 120 437 116Q437 105 441 90Q440 90 433 85H432Q428 85 426 107Q420 99 397 95H395Q357 95 352 146V150Q352 208 397 229L404 231ZM866 199Q889 199 900 161V147Q900 113 866 97L859 96Q843 96 835 116Q833 127 833 133V137Q833
178 852 194Q860 199 866 199ZM943 199Q958 199 977 105H976Q971 101 967 101Q952 168 943 180Q936 173 920 101L918 100H914Q908 100 905 176L913 178H915Q918 162 918 145H919Q928 199 943 199ZM487 195Q507 191 507 175Q508 175 508 173Q508 150 473 137Q468
134 458 134V133Q458 122 475 116H476Q486 116 499 132H502Q502 130 508 123V122Q494 100 479 100H473Q454 100 446 132V147Q446 180 472 193Q477 195 487 195ZM1083 195H1094Q1110 195 1118 167Q1120 151 1121 149Q1120 143 1118 123Q1120 119 1120 100L1114 96H1111L1108
108Q1098 97 1083 97H1079Q1058 100 1058 117V125Q1061 157 1088 157Q1100 157 1109 149V152Q1109 177 1091 181H1088Q1082 181 1071 173H1070Q1069 173 1064 180V182Q1074 195 1083 195ZM634 193Q636 193 645 190Q645 116 659 116Q678 128 687 182Q688 187 688
193H689Q692 193 699 190Q696 166 696 145V133Q696 124 701 114Q696 107 696 103H694Q687 107 686 129H684Q680 114 665 100H656Q636 100 636 175V185L634 193ZM843 137Q845 114 858 114H859Q875 114 886 139Q889 147 889 150Q883 181 867 181H863Q848 181 843
137ZM457 150Q480 150 496 172Q494 178 485 178H482Q463 178 457 150ZM1068 122Q1071 114 1079 114H1085Q1099 114 1107 132Q1098 140 1090 140H1088Q1068 137 1068 122ZM507 45Q508 45 524 41Q520 3 519 -51Q519 -85 529 -120Q518 -130 517 -130H516Q513 -130
510 -117H508Q508 -125 487 -133Q454 -133 440 -91Q437 -79 437 -63Q437 -15 471 -5H475Q489 -5 504 -21V-20Q504 -12 507 45ZM316 39L331 34Q329 11 329 -2V-16Q342 -13 344 -13Q346 -33 346 -37H344Q335 -38 329 -38Q332 -101 334 -129Q322 -131 317 -131V-130Q312
-69 312 -42L310 -40H296V-16H311V-7Q311 39 316 39ZM674 39H675L690 34Q688 6 688 -11V-16Q702 -13 704 -13L705 -27V-37Q689 -38 689 -39Q689 -62 694 -129Q681 -131 677 -131V-130Q672 -55 672 -40H654V-16H671Q671 18 674 39ZM546 36Q555 36 557 22V21Q557
10 549 5H542Q534 10 534 22Q536 36 546 36ZM607 -5Q632 -5 648 -43Q650 -54 650 -60V-69Q650 -109 611 -129Q607 -131 598 -131Q571 -131 566 -90V-76Q566 -25 596 -7Q606 -5 607 -5ZM800 -5H805Q816 -5 816 -8V-10Q825 -5 835 -5Q860 -5 868 -49Q868 -60 869
-63Q866 -115 838 -127L830 -128H820L821 -136Q821 -142 822 -176H805Q800 -44 800 -5ZM915 -5Q938 -5 954 -40Q958 -53 958 -64Q958 -107 920 -129Q912 -131 906 -131Q884 -131 875 -104Q873 -92 873 -81Q873 -27 903 -7Q914 -5 915 -5ZM1117 -5Q1141 -5 1156
-40Q1160 -48 1160 -59V-67Q1160 -110 1121 -129Q1117 -131 1108 -131Q1080 -131 1076 -90V-76Q1076 -25 1106 -7Q1116 -5 1117 -5ZM1211 -5Q1228 -5 1238 -63H1239Q1247 -5 1266 -5H1267Q1291 -5 1307 -123H1305Q1294 -128 1292 -128H1291Q1272 -30 1266 -30Q1256
-52 1249 -112Q1246 -122 1239 -122Q1231 -122 1228 -107Q1215 -31 1209 -31Q1193 -89 1193 -124Q1183 -128 1176 -128V-127L1164 -23Q1177 -17 1181 -17Q1183 -25 1185 -48H1187Q1196 -5 1211 -5ZM258 -6Q282 -11 282 -27V-28Q281 -30 270 -37H267Q267 -30 254
-29H253Q240 -29 233 -39V-43Q233 -49 264 -49Q291 -61 291 -87V-92Q291 -120 269 -130Q264 -133 259 -133H250Q227 -133 211 -108Q211 -103 222 -92H225Q233 -110 255 -110Q273 -110 273 -90Q273 -75 252 -72Q225 -72 220 -60Q216 -52 216 -48V-40Q216 -6 258
-6ZM713 -7Q725 -11 728 -11Q727 -34 727 -45V-51Q727 -84 739 -95H744Q766 -77 766 -23V-13H783V-14Q791 -103 791 -117V-127Q791 -171 763 -187Q753 -191 747 -191Q725 -191 718 -171Q716 -167 716 -162V-153Q716 -138 720 -138L734 -145L733 -153V-157Q733 -165
744 -167H748Q768 -167 773 -134Q774 -130 774 -122V-102L773 -89H772Q762 -119 743 -119H741Q718 -119 711 -69Q710 -61 710 -49V-40Q710 -7 713 -7ZM1033 -8H1041Q1047 -8 1056 -17Q1067 -29 1067 -35Q1056 -48 1055 -48V-48Q1044 -33 1037 -33H1035Q1023 -38
1017 -61L1013 -82Q1013 -104 1027 -106H1030Q1041 -106 1064 -90H1065Q1071 -110 1071 -112Q1046 -130 1024 -130Q1001 -130 996 -84Q996 -50 1015 -20Q1027 -8 1033 -8ZM537 -10H549L555 -11Q555 -14 554 -19Q555 -86 558 -128H540L539 -120Q537 -52 537 -10ZM350
-11Q367 -16 367 -17V-37Q367 -104 379 -104H384Q401 -85 408 -49Q413 -39 414 -11H416Q431 -13 431 -17Q428 -59 428 -76V-86Q428 -96 433 -106Q433 -112 423 -124V-124Q411 -112 411 -99H410Q399 -128 382 -128H379Q350 -128 350 -35V-11ZM454 -67Q454 -101 484
-107H487Q499 -107 502 -81V-78Q502 -42 481 -30L475 -29H473Q456 -29 454 -64V-67ZM583 -82Q583 -104 598 -107H602Q617 -107 631 -78Q633 -74 633 -69V-60Q626 -29 609 -29H607Q586 -29 583 -82ZM816 -37Q816 -40 819 -104L826 -105Q848 -105 852 -63Q849 -29
835 -29H834Q824 -29 816 -37ZM890 -82V-87Q890 -104 905 -107H907Q923 -107 937 -81Q941 -73 941 -63Q935 -29 913 -29Q894 -29 890 -82ZM1092 -82Q1092 -107 1109 -107H1112Q1126 -107 1141 -77Q1143 -71 1143 -67V-60Q1135 -29 1118 -29H1117Q1097 -29 1092
-82ZM977 -96Q986 -96 989 -110V-115Q986 -128 977 -128Q968 -128 966 -113Q967 -96 977 -96ZM717 1368V1126H456Q402 1126 353 1088V1098Q500 1368 717 1368ZM800 1368H810Q942 1368 1089 1219Q1145 1151 1145 1126H800V1368ZM428 1042H717V948Q682 967 642 967H428Q409
967 409 986V1023Q412 1042 428 1042ZM800 1042H1183L1192 948V930Q1192 745 1061 632H894Q800 644 800 725V1042ZM325 967H334Q334 895 474 883H651Q717 883 717 818V715Q717 632 614 632H456Q325 752 325 911V967ZM754 604H763Q824 548 950 548V538Q842 501 763
501H754Q674 501 567 538V548Q699 548 754 604Z" />
<glyph unicode="/" glyph-name="slash" horiz-adv-x="695" d="M695 1562L234 0H0L463 1562H695Z" />
<glyph unicode="0" glyph-name="zero" horiz-adv-x="1275" d="M859 1563T1017 1405Q1175 1247 1175 1026V538Q1175 316 1017 158Q859 0 637 0Q416 0 258 158Q100 316 100 538V1026Q100 1247 258 1405Q416 1563 637 1563Q859 1563 1017 1405ZM516 1313T430 1227Q345
1141 345 1020V544Q345 423 430 337Q516 251 637 251Q758 251 844 337Q930 423 930 544V1020Q930 1141 844 1227Q758 1313 637 1313Q516 1313 430 1227Z" />
<glyph unicode="1" glyph-name="one" horiz-adv-x="689" d="M539 121Q539 71 504 36Q468 0 418 0H416Q366 0 330 36Q295 71 295 121V1318H131Q82 1318 46 1353Q10 1389 10 1439V1441Q10 1491 46 1527Q82 1562 131 1562H418Q468 1562 504 1527Q539 1491 539 1441V121Z" />
<glyph unicode="2" glyph-name="two" horiz-adv-x="1224" d="M673 1562Q856 1562 985 1433Q1114 1304 1114 1122Q1114 962 986 832Q911 754 719 636Q530 517 462 452Q352 343 352 245H1003Q1054 245 1088 209Q1124 173 1124 123V121Q1124 70 1088 36Q1054 0 1003
0H221Q172 0 136 36Q100 70 100 121V215Q100 399 227 548Q314 650 498 767Q721 911 760 942Q869 1033 869 1122Q869 1203 812 1260Q754 1318 673 1318H271Q221 1318 185 1353Q149 1389 149 1439V1441Q149 1491 185 1527Q221 1562 271 1562H673Z" />
<glyph unicode="3" glyph-name="three" horiz-adv-x="1035" d="M471 1562Q653 1562 783 1433Q912 1304 912 1122Q912 916 783 808Q935 692 935 463Q935 272 799 136Q663 0 471 0H191Q142 0 106 36Q70 70 70 121V123Q70 173 106 209Q142 245 191 245H471Q562 245
626 308Q689 372 689 463Q689 554 626 618Q562 682 471 682H235Q185 682 149 718Q114 753 114 803V805Q114 855 149 891Q185 926 235 926L471 927Q552 927 609 983Q666 1040 666 1122Q666 1203 609 1260Q551 1318 471 1318H191Q142 1318 106 1353Q70 1389 70 1439V1441Q70
1491 106 1527Q142 1562 191 1562H471Z" />
<glyph unicode="4" glyph-name="four" horiz-adv-x="1253" d="M617 1500Q651 1562 723 1562H873Q922 1562 958 1527Q994 1491 994 1441V535H1109Q1159 535 1195 499Q1230 463 1230 413V411Q1230 361 1195 326Q1159 290 1109 290H994V121Q994 70 958 36Q922 0 873
0H870Q821 0 785 36Q749 70 749 121V290H191Q142 290 106 326Q70 360 70 411V481Q70 513 85 539L617 1500ZM749 535V1234L362 535H749Z" />
<glyph unicode="5" glyph-name="five" horiz-adv-x="1174" d="M241 682Q192 682 156 718Q120 752 120 803V1441Q120 1491 156 1527Q192 1562 241 1562H851Q900 1562 936 1527Q972 1491 972 1441V1439Q972 1389 936 1353Q900 1318 851 1318H365V926H640Q832 926
968 791Q1104 655 1104 463Q1104 272 968 136Q832 0 640 0H241Q192 0 156 36Q120 70 120 121V123Q120 173 156 209Q192 245 241 245H640Q731 245 795 308Q858 372 858 463Q858 554 795 618Q731 682 640 682H241Z" />
<glyph unicode="6" glyph-name="six" horiz-adv-x="1258" d="M345 682V463Q345 372 409 308Q473 245 563 245H694Q785 245 849 308Q912 372 912 463Q912 554 849 618Q785 682 694 682H345ZM563 0Q372 0 236 136Q100 272 100 463V1099Q100 1291 236 1426Q372 1562
563 1562H868Q918 1562 954 1527Q990 1491 990 1441V1439Q990 1389 954 1353Q918 1318 868 1318H563Q473 1318 409 1254Q345 1190 345 1099V926H694Q886 926 1022 791Q1158 655 1158 463Q1158 272 1022 136Q886 0 694 0H563Z" />
<glyph unicode="7" glyph-name="seven" horiz-adv-x="960" d="M530 117Q530 71 495 36Q459 0 409 0H407Q356 0 322 36Q286 70 286 125L646 1318H131Q82 1318 46 1353Q10 1389 10 1439V1441Q10 1491 46 1527Q82 1562 131 1562H809Q859 1562 895 1527Q930 1491 930
1437L530 117Z" />
<glyph unicode="8" glyph-name="eight" horiz-adv-x="1276" d="M713 1562Q895 1562 1024 1433Q1154 1304 1154 1122Q1154 916 1025 808Q1176 692 1176 463Q1176 272 1040 136Q905 0 713 0H563Q372 0 236 136Q100 272 100 463Q100 692 252 808Q123 916 123 1122Q123
1304 252 1433Q381 1562 563 1562H713ZM713 245Q804 245 867 308Q931 372 931 463Q931 554 867 618Q803 682 713 682H563Q473 682 409 618Q345 554 345 463Q345 372 409 308Q473 245 563 245H713ZM713 927Q794 927 851 983Q908 1040 908 1122Q908 1203 851 1260Q793
1318 713 1318H563Q483 1318 425 1260Q368 1203 368 1122Q368 1040 425 983Q482 927 563 927H713Z" />
<glyph unicode="9" glyph-name="nine" horiz-adv-x="1258" d="M913 880V1099Q913 1190 849 1254Q785 1318 694 1318H563Q473 1318 409 1254Q345 1190 345 1099Q345 1008 409 944Q473 880 563 880H913ZM694 1562Q886 1562 1022 1426Q1158 1291 1158 1099V463Q1158
272 1022 136Q886 0 694 0H302Q252 0 216 36Q181 71 181 121V123Q181 173 216 209Q252 245 302 245H694Q785 245 849 308Q912 372 912 463L913 636H563Q372 636 236 772Q100 908 100 1099Q100 1291 236 1426Q372 1562 563 1562H694Z" />
<glyph unicode=":" glyph-name="colon" horiz-adv-x="480" d="M240 0Q182 0 141 41Q100 82 100 140Q100 197 141 238Q182 279 240 279Q297 279 338 238Q380 198 380 140Q380 81 338 41Q297 0 240 0ZM240 873Q182 873 141 914Q100 955 100 1013Q100 1070 141 1111Q182
1152 240 1152Q297 1152 338 1111Q380 1071 380 1013Q380 954 338 914Q297 873 240 873Z" />
<glyph unicode=";" glyph-name="semicolon" horiz-adv-x="480" d="M288 241Q324 241 345 209Q356 192 356 174Q356 159 349 144L220 -143Q202 -184 158 -184H92Q58 -184 37 -157Q23 -138 23 -117Q23 -108 26 -98L104 189Q116 241 169 241H288ZM240 873Q182 873
141 914Q100 955 100 1013Q100 1070 141 1111Q182 1152 240 1152Q297 1152 338 1111Q380 1071 380 1013Q380 954 338 914Q297 873 240 873Z" />
<glyph unicode="&lt;" glyph-name="less" horiz-adv-x="1190" d="M103 602Q50 622 50 680V861Q50 918 103 940L1025 1298Q1042 1305 1058 1305Q1082 1305 1103 1290Q1140 1265 1140 1220V1153Q1140 1097 1087 1075L313 771L1087 466Q1140 446 1140 388V321Q1140
276 1103 251Q1082 236 1058 236Q1042 236 1025 243L103 602Z" />
<glyph unicode="=" glyph-name="equal" horiz-adv-x="1152" d="M1102 555Q1102 504 1066 470Q1030 434 980 434H171Q120 434 86 470Q50 504 50 555V557Q50 607 86 643Q120 679 171 679H980Q1030 679 1066 643Q1102 607 1102 557V555ZM1102 990Q1102 939 1066 905Q1030
869 980 869H171Q120 869 86 905Q50 939 50 990V992Q50 1042 86 1078Q120 1114 171 1114H980Q1030 1114 1066 1078Q1102 1042 1102 992V990Z" />
<glyph unicode="&gt;" glyph-name="greater" horiz-adv-x="1190" d="M165 243Q148 236 132 236Q108 236 87 251Q50 276 50 321V388Q50 446 103 466L878 771L103 1075Q50 1097 50 1153V1220Q50 1265 87 1290Q108 1305 132 1305Q148 1305 165 1298L1087 940Q1140
918 1140 861V680Q1140 622 1087 602L165 243Z" />
<glyph unicode="?" glyph-name="question" horiz-adv-x="1110" d="M741 1546T881 1407Q1020 1267 1020 1070Q1020 901 914 771Q811 642 662 608V478Q662 431 627 395Q592 360 543 360H540Q491 360 456 395Q421 431 421 480V715Q421 764 456 799Q490 834 539 835H544Q642
835 710 903Q779 972 779 1070Q779 1168 710 1237Q642 1305 544 1305Q465 1305 403 1258Q342 1212 319 1139Q308 1101 276 1078Q245 1055 205 1055H202Q142 1055 106 1103Q82 1135 82 1172Q82 1190 88 1209Q133 1357 258 1451Q385 1546 544 1546Q741 1546 881 1407ZM541
-1Q483 -1 442 40Q401 81 401 139Q401 196 442 237Q483 278 541 278Q598 278 639 237Q681 197 681 139Q681 80 639 40Q598 -1 541 -1Z" />
<glyph unicode="@" glyph-name="at" horiz-adv-x="2205" d="M1338 -408T1103 -408H1101Q685 -408 393 -114Q100 175 100 588Q100 1000 393 1289Q686 1584 1103 1584Q1519 1584 1812 1289Q2105 1000 2105 588Q2105 337 1974 147Q1844 -42 1679 -50H1662Q1562 -50
1495 15Q1404 101 1404 337V357L1406 580Q1406 734 1307 821Q1247 874 1157 890Q1121 897 1087 897Q1034 897 980 880Q774 817 774 580Q774 384 944 297Q1013 261 1092 261Q1101 261 1111 263Q1197 269 1300 338L1398 117Q1264 39 1134 29Q1113 28 1092 28Q955
28 827 92Q687 164 609 292Q529 422 529 580Q529 837 703 989Q863 1131 1090 1131Q1316 1131 1476 990Q1651 837 1651 580L1650 355V331Q1650 198 1668 183Q1716 186 1780 292Q1860 424 1860 588Q1860 905 1635 1130Q1414 1351 1103 1351Q791 1351 567 1127Q345
905 345 588Q345 270 570 45Q792 -175 1101 -175H1103Q1283 -175 1482 -72L1577 -289Q1338 -408 1103 -408Z" />
<glyph unicode="A" glyph-name="A" horiz-adv-x="1255" d="M1145 121Q1145 70 1109 36Q1073 0 1024 0H1021Q972 0 936 36Q900 70 900 121V567H355V121Q355 70 319 36Q283 0 234 0H231Q182 0 146 36Q110 70 110 121V1045Q110 1259 262 1411Q414 1562 627 1562Q841
1562 993 1411Q1145 1259 1145 1045V121ZM900 811V1045Q900 1158 821 1238Q741 1318 627 1318Q514 1318 434 1238Q355 1158 355 1045V811H900Z" />
<glyph unicode="B" glyph-name="B" horiz-adv-x="1164" d="M355 926L630 927Q712 927 769 983Q826 1040 826 1122Q826 1203 769 1260Q711 1318 630 1318H392Q376 1318 365 1307Q355 1296 355 1280V926ZM110 1280Q110 1397 193 1480Q276 1562 392 1562H630Q813
1562 942 1433Q1071 1304 1071 1122Q1071 916 942 808Q1094 692 1094 463Q1094 272 958 136Q822 0 630 0H392Q276 0 193 83Q110 166 110 282V1280ZM630 245Q721 245 785 308Q848 372 848 463Q848 554 785 618Q721 682 630 682H355V282Q355 266 365 255Q376 245
392 245H630Z" />
<glyph unicode="C" glyph-name="C" horiz-adv-x="1202" d="M955 1562T1050 1538Q1142 1514 1142 1421V1418Q1142 1359 1094 1322Q1062 1297 1024 1297Q1008 1297 991 1301Q924 1318 856 1318Q634 1318 477 1161Q320 1004 320 781Q320 558 477 401Q634 245 856
245Q924 245 991 261Q1008 265 1024 265Q1062 265 1094 240Q1142 204 1142 144V142Q1142 48 1050 24Q955 0 856 0Q533 0 304 229Q75 458 75 781Q75 1104 304 1333Q533 1562 856 1562Q955 1562 1050 1538Z" />
<glyph unicode="D" glyph-name="D" horiz-adv-x="1384" d="M355 282Q355 266 365 255Q376 245 392 245H543Q766 245 923 401Q1080 558 1080 781Q1080 1004 923 1161Q766 1318 543 1318H392Q376 1318 365 1307Q355 1296 355 1280V282ZM543 1562Q866 1562 1095 1333Q1324
1104 1324 781Q1324 458 1095 229Q866 0 543 0H392Q276 0 193 83Q110 166 110 282V1280Q110 1397 193 1480Q276 1562 392 1562H543Z" />
<glyph unicode="E" glyph-name="E" horiz-adv-x="1008" d="M355 903H832Q881 903 917 868Q953 832 953 782V780Q953 730 917 694Q881 659 832 659H355V365Q355 315 390 280Q425 245 475 245H832Q881 245 917 209Q953 173 953 123V121Q953 70 917 36Q881 0 832
0H475Q324 0 217 107Q110 214 110 365V1197Q110 1348 217 1455Q324 1562 475 1562H832Q881 1562 917 1526Q953 1492 953 1441V1439Q953 1389 917 1353Q881 1317 832 1317H475Q425 1317 390 1282Q355 1247 355 1197V903Z" />
<glyph unicode="F" glyph-name="F" horiz-adv-x="933" d="M355 903H772Q821 903 857 868Q893 832 893 782V780Q893 729 857 695Q821 659 772 659H355V121Q355 70 319 36Q283 0 234 0H231Q182 0 146 36Q110 70 110 121V1197Q110 1348 217 1455Q324 1562 475 1562H782Q831
1562 867 1527Q903 1491 903 1441V1439Q903 1389 867 1353Q831 1318 782 1318H475Q425 1318 390 1283Q355 1248 355 1197V903Z" />
<glyph unicode="G" glyph-name="G" horiz-adv-x="1723" d="M1204 1562T1436 1310Q1469 1274 1469 1228Q1469 1221 1468 1215Q1461 1160 1419 1131L1417 1129Q1384 1105 1347 1105Q1340 1105 1333 1106Q1288 1110 1256 1145Q1097 1318 861 1318Q639 1318 482 1161Q325
1004 325 781Q325 558 482 401Q639 245 861 245Q1060 245 1210 374Q1359 502 1385 659H886Q836 659 800 695Q765 730 765 780V782Q765 832 800 868Q836 903 886 903H1521Q1571 903 1607 868Q1642 832 1643 782V781Q1643 458 1414 229Q1184 0 861 0Q538 0 309 229Q80
458 80 781Q80 1104 309 1333Q538 1562 861 1562Q1204 1562 1436 1310Z" />
<glyph unicode="H" glyph-name="H" d="M234 1562Q283 1562 319 1527Q355 1491 355 1441V903H909V1441Q909 1491 945 1527Q981 1562 1030 1562H1033Q1082 1562 1118 1527Q1154 1491 1154 1441V121Q1154 70 1118 36Q1082 0 1033 0H1030Q981 0 945 36Q909 70 909
121V659H355V121Q355 70 319 36Q283 0 234 0H231Q182 0 146 36Q110 70 110 121V1441Q110 1491 146 1527Q182 1562 231 1562H234Z" />
<glyph unicode="I" glyph-name="I" horiz-adv-x="525" d="M264 1562Q313 1562 349 1527Q385 1491 385 1441V121Q385 70 349 36Q313 0 264 0H261Q212 0 176 36Q140 70 140 121V1441Q140 1491 176 1527Q212 1562 261 1562H264Z" />
<glyph unicode="J" glyph-name="J" horiz-adv-x="801" d="M437 1441Q437 1491 472 1527Q508 1562 558 1562H560Q610 1562 646 1527Q681 1491 681 1441V365Q681 214 574 107Q467 0 316 0H131Q82 0 46 36Q10 70 10 121V123Q10 173 46 209Q82 245 131 245H316Q367
245 402 280Q437 315 437 365V1441Z" />
<glyph unicode="K" glyph-name="K" horiz-adv-x="1158" d="M234 1562Q283 1562 319 1527Q355 1491 355 1441V953H459Q596 953 692 1049Q789 1146 790 1282V1441Q790 1491 826 1527Q861 1562 911 1562H914Q963 1562 999 1527Q1035 1491 1035 1441V1282Q1035 993
839 847Q928 793 1002 664Q1078 531 1078 377V121Q1078 71 1043 36Q1007 0 957 0H955Q905 0 869 36Q834 71 834 121V377Q833 513 736 610Q639 706 502 706H355V121Q355 70 319 36Q283 0 234 0H231Q182 0 146 36Q110 70 110 121V1441Q110 1491 146 1527Q182 1562
231 1562H234Z" />
<glyph unicode="L" glyph-name="L" horiz-adv-x="908" d="M365 365Q365 315 400 280Q435 245 485 245H776Q826 245 862 209Q898 173 898 123V121Q898 70 862 36Q826 0 776 0H485Q334 0 227 107Q120 214 120 365V1441Q120 1491 156 1527Q192 1562 241 1562H244Q293
1562 329 1527Q365 1491 365 1441V365Z" />
<glyph unicode="M" glyph-name="M" horiz-adv-x="1899" d="M355 121Q355 70 319 36Q283 0 234 0H231Q182 0 146 36Q110 70 110 121V1081Q110 1280 251 1421Q392 1562 591 1562Q829 1562 950 1404Q1070 1562 1308 1562Q1507 1562 1648 1421Q1789 1280 1789 1081V121Q1789
71 1754 36Q1718 0 1668 0H1666Q1615 0 1581 36Q1545 70 1545 121V1081Q1545 1180 1476 1249Q1407 1318 1308 1318Q1210 1318 1141 1249Q1072 1180 1072 1081V121Q1072 70 1036 36Q1002 0 951 0H949Q899 0 863 36Q827 70 827 121V1081Q827 1180 758 1249Q689 1318
591 1318Q493 1318 424 1249Q355 1180 355 1081V121Z" />
<glyph unicode="N" glyph-name="N" horiz-adv-x="1255" d="M1145 121Q1145 70 1109 36Q1073 0 1024 0H1021Q972 0 936 36Q900 70 900 121V1045Q900 1158 821 1238Q741 1318 627 1318Q514 1318 434 1238Q355 1158 355 1045V121Q355 70 319 36Q283 0 234 0H231Q182
0 146 36Q110 70 110 121V1045Q110 1259 262 1411Q414 1562 627 1562Q841 1562 993 1411Q1145 1259 1145 1045V121Z" />
<glyph unicode="O" glyph-name="O" horiz-adv-x="1723" d="M1184 1562T1414 1333Q1643 1104 1643 781Q1643 458 1414 229Q1184 0 861 0Q538 0 309 229Q80 458 80 781Q80 1104 309 1333Q538 1562 861 1562Q1184 1562 1414 1333ZM639 1318T482 1161Q325 1004 325
781Q325 558 482 401Q639 245 861 245Q1084 245 1241 401Q1398 558 1398 781Q1398 1004 1241 1161Q1084 1318 861 1318Q639 1318 482 1161Z" />
<glyph unicode="P" glyph-name="P" horiz-adv-x="1242" d="M355 745H641Q760 745 844 829Q927 912 927 1031Q927 1150 844 1234Q760 1318 641 1318Q522 1318 438 1234Q355 1150 355 1031V745ZM355 500V121Q355 70 319 36Q283 0 234 0H231Q182 0 146 36Q110 70
110 121V1031Q110 1251 266 1407Q422 1562 641 1562Q861 1562 1016 1407Q1172 1251 1172 1031Q1172 812 1016 656Q861 500 641 500H355Z" />
<glyph unicode="Q" glyph-name="Q" horiz-adv-x="1723" d="M1184 1562T1414 1333Q1643 1104 1643 781Q1643 484 1444 262Q1249 42 984 9V-148Q984 -198 948 -234Q912 -269 862 -269H860Q810 -269 775 -234Q739 -198 739 -148V9Q474 42 278 262Q80 484 80 781Q80
1104 309 1333Q538 1562 861 1562Q1184 1562 1414 1333ZM862 591Q912 591 948 555Q984 519 984 470V257Q1141 283 1269 432Q1398 583 1398 781Q1398 1004 1241 1161Q1084 1318 861 1318Q639 1318 482 1161Q325 1004 325 781Q325 582 454 433Q582 283 739 257V470Q739
519 775 555Q809 591 860 591H862Z" />
<glyph unicode="R" glyph-name="R" horiz-adv-x="1190" d="M630 806Q736 806 811 880Q886 955 886 1061Q886 1168 811 1243Q736 1317 630 1317H515Q440 1317 398 1276Q365 1243 356 1198Q354 1187 354 1163V806H630ZM886 306Q886 412 811 487Q743 556 649 561H354V121Q354
71 319 36Q283 0 233 0H231Q180 0 146 36Q110 70 110 121V1172Q110 1333 224 1447Q339 1562 500 1562H630Q837 1562 983 1415Q1130 1268 1130 1061Q1130 855 983 708L960 684L984 659Q1130 513 1130 306V121Q1130 70 1094 36Q1058 0 1009 0H1007Q958 0 922 36Q886
70 886 121V306Z" />
<glyph unicode="S" glyph-name="S" horiz-adv-x="1096" d="M530 1320Q444 1320 384 1260Q324 1200 324 1114Q324 1012 417 959Q458 936 658 878Q829 827 908 755Q1026 648 1026 454Q1026 266 892 133Q759 0 572 0H191Q142 0 106 36Q70 72 70 121V127Q70 176 106
212Q142 248 191 248H582Q667 248 728 308Q788 368 788 454Q788 554 695 610Q651 636 453 698Q282 754 204 825Q86 931 86 1114Q86 1302 219 1435Q352 1568 540 1568H809Q859 1568 895 1532Q930 1497 930 1447V1441Q930 1392 895 1356Q859 1320 809 1320H530Z"
/>
<glyph unicode="T" glyph-name="T" horiz-adv-x="1054" d="M1014 1439Q1014 1389 978 1353Q943 1318 893 1318H649V121Q649 71 614 36Q578 0 528 0H526Q476 0 440 36Q405 71 405 121V1318H161Q112 1318 76 1353Q40 1389 40 1439V1441Q40 1491 76 1527Q112 1562
161 1562H893Q943 1562 978 1527Q1014 1491 1014 1441V1439Z" />
<glyph unicode="U" glyph-name="U" horiz-adv-x="1255" d="M1145 517Q1145 303 993 152Q841 0 627 0Q414 0 262 152Q110 303 110 517V1441Q110 1491 146 1527Q182 1562 231 1562H234Q283 1562 319 1527Q355 1491 355 1441V517Q355 404 434 324Q514 245 627 245Q741
245 821 324Q900 404 900 517V1441Q900 1491 936 1527Q972 1562 1021 1562H1024Q1073 1562 1109 1527Q1145 1491 1145 1441V517Z" />
<glyph unicode="V" glyph-name="V" horiz-adv-x="1216" d="M609 353L953 1480Q981 1562 1067 1562H1074Q1137 1562 1173 1512Q1197 1479 1197 1443Q1197 1423 1189 1401L779 117Q733 0 608 0Q484 0 437 117L28 1401Q20 1423 20 1444Q20 1480 43 1512Q80 1562 142
1562H149Q236 1562 264 1480L609 353Z" />
<glyph unicode="W" glyph-name="W" horiz-adv-x="1899" d="M355 481Q355 383 424 314Q493 245 591 245Q689 245 758 314Q827 383 827 481V1441Q827 1491 863 1527Q899 1562 949 1562H951Q1001 1562 1036 1527Q1072 1491 1072 1441V481Q1072 383 1141 314Q1210
245 1308 245Q1407 245 1476 314Q1545 383 1545 481V1441Q1545 1491 1581 1527Q1616 1562 1666 1562H1668Q1718 1562 1754 1527Q1789 1491 1789 1441V481Q1789 282 1648 141Q1507 0 1308 0Q1070 0 950 158Q829 0 591 0Q392 0 251 141Q110 282 110 481V1441Q110
1491 146 1527Q182 1562 231 1562H234Q283 1562 319 1527Q355 1491 355 1441V481Z" />
<glyph unicode="X" glyph-name="X" horiz-adv-x="1235" d="M1135 121Q1135 70 1099 36Q1063 0 1014 0H1011Q962 0 926 36Q890 70 890 121V424Q890 537 811 617Q731 697 617 697Q504 697 424 617Q345 537 345 424V121Q345 70 309 36Q273 0 224 0H221Q172 0 136
36Q100 70 100 121V424Q100 688 281 819Q100 950 100 1214V1441Q100 1491 136 1527Q172 1562 221 1562H224Q273 1562 309 1527Q345 1491 345 1441V1214Q345 1101 424 1021Q504 941 617 941Q731 941 811 1021Q890 1101 890 1214V1441Q890 1491 926 1527Q962 1562
1011 1562H1014Q1063 1562 1099 1527Q1135 1491 1135 1441V1214Q1135 950 954 819Q1135 688 1135 424V121Z" />
<glyph unicode="Y" glyph-name="Y" horiz-adv-x="1235" d="M1135 997Q1135 809 1015 665Q896 524 740 493V121Q740 70 704 36Q668 0 619 0H616Q567 0 531 36Q495 70 495 121V493Q339 524 220 665Q100 809 100 997V1441Q100 1491 136 1527Q172 1562 221 1562H224Q273
1562 309 1527Q345 1491 345 1441V997Q345 883 424 803Q504 724 617 724Q731 724 811 803Q890 883 890 997V1441Q890 1491 926 1527Q962 1562 1011 1562H1014Q1063 1562 1099 1527Q1135 1491 1135 1441V997Z" />
<glyph unicode="Z" glyph-name="Z" horiz-adv-x="1093" d="M84 1441Q84 1491 119 1527Q155 1562 205 1562H824Q912 1561 973 1498Q1035 1435 1035 1348Q1035 1283 1000 1229L313 245H932Q983 245 1017 209Q1053 173 1053 123V121Q1053 70 1017 36Q983 0 932 0H235Q152
8 96 70Q40 131 40 215Q40 270 67 320L764 1318H205Q155 1318 119 1353Q84 1389 84 1439V1441Z" />
<glyph unicode="[" glyph-name="bracketleft" horiz-adv-x="711" d="M100 1562H611V1371H345V-219H611V-411H100V1562Z" />
<glyph unicode="\" glyph-name="backslash" horiz-adv-x="695" d="M233 1562L695 0H462L0 1562H233Z" />
<glyph unicode="]" glyph-name="bracketright" horiz-adv-x="711" d="M611 -411H100V-219H366V1371H100V1562H611V-411Z" />
<glyph unicode="^" glyph-name="asciicircum" horiz-adv-x="1369" d="M525 1507Q546 1562 607 1562H761Q821 1562 843 1507L1113 940Q1121 922 1121 905Q1121 880 1104 857Q1079 818 1032 818H960Q900 818 878 873L684 1298L489 873Q468 818 408 818H336Q288 818
263 857Q247 880 247 906Q247 922 254 940L525 1507Z" />
<glyph unicode="_" glyph-name="underscore" horiz-adv-x="1007" d="M-10 -246V-1H1017V-246H-10Z" />
<glyph unicode="`" glyph-name="grave" horiz-adv-x="681" d="M29 1520Q11 1538 11 1560Q11 1576 20 1594Q39 1633 81 1633H236Q272 1633 290 1605L465 1355Q480 1335 480 1314Q480 1299 472 1283Q453 1246 411 1246H335Q308 1246 283 1269L29 1520Z" />
<glyph unicode="a" glyph-name="a" horiz-adv-x="1352" d="M914 1152T1083 983Q1252 814 1252 576V121Q1252 70 1216 36Q1180 0 1131 0H1128Q1079 0 1043 36Q1007 70 1007 121Q893 0 676 0Q438 0 269 169Q100 338 100 576Q100 814 269 983Q438 1152 676 1152Q914
1152 1083 983ZM538 907T441 810Q345 713 345 576Q345 438 441 341Q538 245 676 245Q814 245 910 341Q1007 438 1007 576Q1007 713 910 810Q813 907 676 907Q538 907 441 810Z" />
<glyph unicode="b" glyph-name="b" horiz-adv-x="1322" d="M676 905Q538 905 441 808Q345 711 345 573Q345 436 441 339Q538 242 676 242Q813 242 910 339Q1007 436 1007 573Q1007 711 910 808Q813 905 676 905ZM224 1562Q273 1562 309 1527Q345 1491 345 1441V1052Q458
1152 676 1152Q914 1152 1083 983Q1252 814 1252 576Q1252 338 1083 169Q914 0 676 0Q438 0 270 168Q101 335 100 573V1441Q100 1491 136 1527Q172 1562 221 1562H224Z" />
<glyph unicode="c" glyph-name="c" horiz-adv-x="975" d="M736 1152T820 1125Q905 1098 905 1009V1004Q905 943 856 907Q822 883 786 883Q767 883 747 889Q698 905 646 905Q508 905 411 808Q315 711 315 573Q315 436 411 339Q508 242 646 242Q698 242 747 258Q766
264 785 264Q822 264 856 240Q905 204 905 142Q905 54 820 26Q736 0 646 0Q408 0 239 169Q70 338 70 576Q70 814 239 983Q408 1152 646 1152Q736 1152 820 1125Z" />
<glyph unicode="d" glyph-name="d" horiz-adv-x="1322" d="M508 905T411 808Q315 711 315 573Q315 436 411 339Q508 242 646 242Q783 242 880 339Q977 436 977 573Q977 711 880 808Q783 905 646 905Q508 905 411 808ZM1101 1562Q1150 1562 1186 1527Q1222 1491
1222 1441V573Q1221 335 1052 168Q883 0 646 0Q408 0 239 169Q70 338 70 576Q70 814 239 983Q408 1152 646 1152Q863 1152 977 1052V1441Q977 1491 1013 1527Q1049 1562 1098 1562H1101Z" />
<glyph unicode="e" glyph-name="e" horiz-adv-x="1277" d="M646 905Q508 905 411 808Q315 711 315 573V566L874 817Q800 905 646 905ZM1169 816Q1181 791 1181 765Q1181 744 1173 723Q1156 676 1109 655Q969 592 741 489Q458 361 409 338Q485 242 646 242Q753
242 840 305Q925 367 959 465Q988 547 1075 547Q1137 547 1174 495Q1197 463 1197 428Q1197 407 1189 385Q1130 214 982 109Q832 0 646 0Q408 0 239 169Q70 338 70 576Q70 814 239 983Q408 1152 646 1152Q818 1152 960 1058Q1101 966 1169 816Z" />
<glyph unicode="f" glyph-name="f" horiz-adv-x="759" d="M598 1562Q648 1562 684 1527Q719 1491 719 1441V1439Q719 1389 684 1353Q648 1318 598 1318H541Q459 1318 402 1261Q346 1204 345 1151H598Q648 1151 684 1115Q719 1080 719 1030V1028Q719 978 684 942Q648
906 598 906H345V121Q345 70 309 36Q273 0 224 0H221Q172 0 136 36Q100 70 100 121V1122Q102 1305 229 1433Q358 1562 541 1562H598Z" />
<glyph unicode="g" glyph-name="g" horiz-adv-x="1322" d="M446 -166T646 -166Q771 -166 872 -68Q977 32 977 165Q863 0 646 0Q408 0 239 169Q70 338 70 576Q70 814 239 983Q408 1152 646 1152Q883 1152 1052 984Q1221 817 1222 578V165Q1222 -69 1041 -243Q866
-411 646 -411Q309 -411 141 -149Q121 -118 121 -85Q121 -65 128 -45Q146 11 202 31L205 32Q230 41 253 41Q309 41 347 -15Q446 -166 646 -166ZM977 582Q975 717 878 812Q782 907 646 907Q508 907 411 810Q315 713 315 576Q315 438 411 341Q508 245 646 245Q784
245 880 341Q977 438 977 576V582Z" />
<glyph unicode="h" glyph-name="h" horiz-adv-x="1167" d="M224 1562Q273 1562 309 1527Q345 1491 345 1441V1093Q424 1152 584 1152Q783 1152 925 1010Q1067 868 1067 668V121Q1067 70 1031 36Q997 0 946 0H944Q894 0 858 36Q822 70 822 121V668Q822 767 753
837Q683 907 584 907Q484 907 414 837Q345 767 345 668V121Q345 70 309 36Q273 0 224 0H221Q172 0 136 36Q100 70 100 121V1441Q100 1491 136 1527Q172 1562 221 1562H224Z" />
<glyph unicode="i" glyph-name="i" horiz-adv-x="520" d="M261 1152Q312 1152 346 1116Q382 1080 382 1030V121Q382 70 346 36Q312 0 261 0H259Q209 0 173 36Q137 70 137 121V1030Q137 1080 173 1116Q209 1152 259 1152H261ZM260 1282Q202 1282 161 1323Q120 1364
120 1422Q120 1479 161 1520Q202 1561 260 1561Q317 1561 358 1520Q400 1480 400 1422Q400 1363 358 1323Q317 1282 260 1282Z" />
<glyph unicode="j" glyph-name="j" horiz-adv-x="529" d="M-89 -411Q-138 -411 -174 -375Q-210 -339 -210 -290V-287Q-210 -238 -174 -202Q-138 -166 -89 -166H-31Q50 -166 107 -109Q164 -52 165 30V1030Q165 1080 200 1116Q236 1152 286 1152H288Q338 1152 374
1116Q409 1080 409 1030V30Q407 -154 280 -282Q153 -411 -31 -411H-89ZM286 1284Q228 1284 187 1325Q146 1366 146 1424Q146 1481 187 1522Q228 1563 286 1563Q343 1563 384 1522Q426 1482 426 1424Q426 1365 384 1325Q343 1284 286 1284Z" />
<glyph unicode="k" glyph-name="k" horiz-adv-x="1073" d="M224 1562Q273 1562 309 1527Q345 1491 345 1441V748H383Q511 748 606 833Q699 918 712 1043Q718 1090 752 1120Q786 1152 833 1152H836Q889 1152 925 1112Q957 1077 957 1031Q957 1025 956 1018Q932
767 764 642Q852 588 926 459Q1003 326 1003 172V121Q1003 70 967 36Q931 0 882 0H879Q830 0 794 36Q758 70 758 121V172Q757 308 661 405Q564 501 427 501H345V121Q345 70 309 36Q273 0 224 0H221Q172 0 136 36Q100 70 100 121V1441Q100 1491 136 1527Q172 1562
221 1562H224Z" />
<glyph unicode="l" glyph-name="l" horiz-adv-x="525" d="M264 1562Q313 1562 349 1527Q385 1491 385 1441V121Q385 70 349 36Q313 0 264 0H261Q212 0 176 36Q140 70 140 121V1441Q140 1491 176 1527Q212 1562 261 1562H264Z" />
<glyph unicode="m" glyph-name="m" horiz-adv-x="1879" d="M345 121Q345 70 309 36Q273 0 224 0H221Q172 0 136 36Q100 70 100 121V671Q100 869 241 1011Q382 1152 581 1152Q819 1152 940 994Q1060 1152 1298 1152Q1497 1152 1638 1011Q1779 869 1779 671V121Q1779
71 1744 36Q1708 0 1658 0H1656Q1605 0 1571 36Q1535 70 1535 121V671Q1535 769 1466 838Q1397 907 1298 907Q1200 907 1131 838Q1062 769 1062 671V121Q1062 70 1026 36Q992 0 941 0H939Q889 0 853 36Q817 70 817 121V671Q817 769 748 838Q679 907 581 907Q483
907 414 838Q345 769 345 671V121Z" />
<glyph unicode="n" glyph-name="n" horiz-adv-x="1167" d="M345 121Q345 70 309 36Q273 0 224 0H221Q172 0 136 36Q100 70 100 121V668Q100 868 242 1010Q384 1152 584 1152Q783 1152 925 1010Q1067 868 1067 668V121Q1067 70 1031 36Q997 0 946 0H944Q894 0 858
36Q822 70 822 121V668Q822 767 753 837Q683 907 584 907Q484 907 414 837Q345 767 345 668V121Z" />
<glyph unicode="o" glyph-name="o" horiz-adv-x="1292" d="M646 905Q508 905 411 808Q315 711 315 573Q315 436 411 339Q508 242 646 242Q783 242 880 339Q977 436 977 573Q977 711 880 808Q783 905 646 905ZM646 1152Q884 1152 1053 983Q1222 814 1222 576Q1222
338 1053 169Q884 0 646 0Q408 0 239 169Q70 338 70 576Q70 814 239 983Q408 1152 646 1152Z" />
<glyph unicode="p" glyph-name="p" horiz-adv-x="1322" d="M813 247T910 344Q1007 441 1007 578Q1007 716 910 813Q814 909 676 909Q538 909 441 813Q345 716 345 578Q345 441 441 344Q538 247 676 247Q813 247 910 344ZM221 -411Q172 -411 136 -375Q100 -339
100 -290V578Q101 817 270 984Q438 1152 676 1152Q914 1152 1083 983Q1252 814 1252 576Q1252 338 1083 169Q914 0 676 0Q458 0 345 100V-290Q345 -339 309 -375Q273 -411 224 -411H221Z" />
<glyph unicode="q" glyph-name="q" horiz-adv-x="1322" d="M646 247Q783 247 880 344Q977 441 977 578Q977 716 880 813Q784 909 646 909Q508 909 411 813Q315 716 315 578Q315 441 411 344Q508 247 646 247ZM1098 -411Q1049 -411 1013 -375Q977 -339 977 -290V100Q863
0 646 0Q408 0 239 169Q70 338 70 576Q70 814 239 983Q408 1152 646 1152Q883 1152 1052 984Q1221 815 1222 578V-290Q1222 -339 1186 -375Q1150 -411 1101 -411H1098Z" />
<glyph unicode="r" glyph-name="r" horiz-adv-x="729" d="M598 1152Q648 1152 684 1116Q719 1080 719 1030V1028Q719 978 684 943Q648 907 598 907H541Q459 907 402 850Q346 793 345 711V121Q345 70 309 36Q273 0 224 0H221Q172 0 136 36Q100 70 100 121V711Q102
894 229 1023Q358 1152 541 1152H598Z" />
<glyph unicode="s" glyph-name="s" horiz-adv-x="851" d="M410 907Q366 907 336 877Q306 846 306 803Q306 743 364 713Q384 702 531 663Q650 629 708 574Q791 495 791 349Q791 205 689 102Q586 0 442 0H181Q132 0 96 36Q60 70 60 121V123Q60 173 96 209Q132 245
181 245H452Q496 245 526 275Q556 305 556 349Q556 404 499 432Q484 439 331 482Q212 517 154 574Q71 655 71 803Q71 947 173 1049Q276 1152 420 1152H604Q654 1152 690 1116Q726 1080 726 1030V1028Q726 977 690 943Q654 907 604 907H410Z" />
<glyph unicode="t" glyph-name="t" horiz-adv-x="656" d="M224 1562Q273 1562 309 1527Q345 1491 345 1441V1152H495Q544 1152 580 1116Q616 1080 616 1030V1028Q616 977 580 943Q544 907 495 907H345V314Q345 285 365 265Q385 245 415 245H495Q544 245 580 209Q616
173 616 123V121Q616 70 580 36Q544 0 495 0H415Q285 0 192 92Q100 185 100 314V1441Q100 1491 136 1527Q172 1562 221 1562H224Z" />
<glyph unicode="u" glyph-name="u" horiz-adv-x="1167" d="M345 483Q345 384 414 314Q484 245 584 245Q683 245 753 314Q822 384 822 483V1030Q822 1080 858 1116Q894 1152 944 1152H946Q997 1152 1031 1116Q1067 1080 1067 1030V483Q1067 284 925 142Q783 0 584
0Q384 0 242 142Q100 284 100 483V1030Q100 1080 136 1116Q172 1152 221 1152H224Q273 1152 309 1116Q345 1080 345 1030V483Z" />
<glyph unicode="v" glyph-name="v" horiz-adv-x="1147" d="M573 339L890 1078Q922 1152 1002 1152H1004Q1069 1152 1105 1097Q1126 1066 1126 1032Q1126 1008 1115 983L744 116Q698 0 574 0Q448 0 403 116L31 983Q21 1008 21 1031Q21 1065 42 1097Q78 1152 143
1152H146Q226 1152 257 1078Q496 519 533 434Q533 430 573 339Z" />
<glyph unicode="w" glyph-name="w" horiz-adv-x="1879" d="M345 481Q345 383 414 314Q483 245 581 245Q679 245 748 314Q817 383 817 481V1030Q817 1080 853 1116Q889 1152 939 1152H941Q992 1152 1026 1116Q1062 1080 1062 1030V481Q1062 383 1131 314Q1200 245
1298 245Q1397 245 1466 314Q1535 383 1535 481V1030Q1535 1080 1571 1116Q1605 1152 1656 1152H1658Q1708 1152 1744 1116Q1779 1080 1779 1030V481Q1779 282 1638 141Q1497 0 1298 0Q1060 0 940 158Q819 0 581 0Q382 0 241 141Q100 282 100 481V1030Q100 1080
136 1116Q172 1152 221 1152H224Q273 1152 309 1116Q345 1080 345 1030V481Z" />
<glyph unicode="x" glyph-name="x" horiz-adv-x="1137" d="M330 942Q330 843 399 773Q469 703 569 703Q668 703 738 773Q807 843 807 942V1030Q807 1080 843 1116Q879 1152 929 1152H931Q982 1152 1016 1116Q1052 1080 1052 1031V942Q1052 702 892 581Q1052 459
1052 220V121Q1052 70 1016 36Q982 0 931 0H929Q879 0 843 36Q807 70 807 121V220Q807 319 738 389Q668 458 569 458Q469 458 399 389Q330 319 330 220V121Q330 70 294 36Q258 0 209 0H206Q157 0 121 36Q85 70 85 121V220Q85 459 245 581Q85 702 85 942V1030Q85
1080 121 1116Q157 1152 206 1152H209Q258 1152 294 1116Q330 1080 330 1030V942Z" />
<glyph unicode="y" glyph-name="y" horiz-adv-x="1167" d="M345 505Q345 406 414 336Q484 266 584 266Q682 266 752 336Q822 406 822 505V1030Q822 1080 858 1116Q894 1152 944 1152H946Q997 1152 1031 1116Q1067 1080 1067 1030V73Q1067 -125 918 -269Q773 -411
584 -411Q434 -411 311 -337Q191 -265 129 -144Q115 -117 115 -90Q115 -67 125 -44Q145 8 195 25L199 27Q221 34 242 34Q264 34 285 26Q326 9 347 -31Q379 -91 443 -128Q508 -166 584 -166Q679 -166 750 -96Q822 -24 822 73V81Q743 22 584 22Q384 22 242 164Q100
305 100 505V1030Q100 1080 136 1116Q172 1152 221 1152H224Q273 1152 309 1116Q345 1080 345 1030V505Z" />
<glyph unicode="z" glyph-name="z" horiz-adv-x="1082" d="M395 248L901 247Q951 247 986 212Q1022 176 1022 126V124Q1022 74 986 38Q951 3 901 3H248Q130 3 83 114Q65 155 65 193Q65 260 122 317Q220 419 420 629Q595 813 688 910H226Q175 910 140 946Q105 982
105 1031V1034Q105 1083 140 1119Q175 1155 226 1155H830Q951 1155 999 1044Q1017 1003 1017 965Q1017 897 960 841Q636 501 395 248Z" />
<glyph unicode="{" glyph-name="braceleft" horiz-adv-x="737" d="M166 701T187 718Q228 752 242 810Q259 886 259 1029Q259 1216 263 1262Q273 1352 299 1407Q326 1464 367 1498Q409 1533 470 1551Q509 1561 587 1562Q628 1562 658 1533Q687 1503 687 1462V1442Q687
1403 661 1375Q634 1346 595 1343Q532 1339 512 1317Q487 1288 484 1106Q479 859 475 834Q438 614 353 573Q447 534 478 270Q487 190 487 63Q487 -86 489 -106Q495 -162 518 -181Q537 -196 594 -200Q632 -201 660 -230Q687 -259 687 -299V-318Q687 -361 657 -389Q628
-418 587 -418Q495 -417 449 -400Q377 -374 331 -317Q284 -260 269 -173Q257 -96 257 89V106Q257 259 240 332Q226 391 186 425Q164 443 136 451Q50 478 50 567V576Q50 666 136 692Q166 701 187 718Z" />
<glyph unicode="|" glyph-name="bar" horiz-adv-x="645" d="M200 1562H441V-416H200V1562Z" />
<glyph unicode="}" glyph-name="braceright" horiz-adv-x="737" d="M601 692Q687 666 687 576V567Q687 478 602 451Q573 443 551 425Q511 392 498 332Q480 255 480 89Q480 -96 468 -173Q454 -260 407 -317Q360 -374 288 -400Q242 -417 150 -418Q109 -418 80 -389Q50
-361 50 -318V-299Q50 -259 77 -230Q105 -201 143 -200Q200 -196 219 -181Q242 -162 249 -106Q250 -86 250 63Q250 190 259 270Q290 534 385 573Q299 614 262 834Q258 859 254 1106Q250 1288 224 1317Q206 1339 143 1343Q103 1346 77 1375Q50 1403 50 1442V1462Q50
1503 80 1533Q109 1562 150 1562Q228 1561 267 1551Q330 1533 370 1498Q411 1464 438 1407Q464 1352 474 1262Q478 1216 478 1029Q478 887 496 810Q509 752 550 718Q572 701 601 692Z" />
<glyph unicode="~" glyph-name="asciitilde" horiz-adv-x="1055" d="M157 864T308 872Q320 873 332 873Q383 873 440 859Q483 849 556 823Q632 796 659 788Q704 776 739 776H752Q809 779 872 824Q896 840 923 840Q943 840 965 831Q989 818 1002 792Q1013 772 1017
743Q1018 734 1018 726Q1018 708 1014 693Q1006 665 988 648Q936 599 879 575Q820 550 747 546Q735 545 723 545Q665 545 605 561Q562 572 474 607Q380 643 317 643H305Q241 640 183 598Q164 583 138 580H134Q112 580 92 589Q68 600 54 625Q41 645 39 671Q37 682
37 693Q37 706 40 719Q46 747 63 764Q157 864 308 872Z" />
</font>
</defs>
</svg>
