<svg width="106" height="78" viewBox="0 0 106 78" fill="none" xmlns="http://www.w3.org/2000/svg">
<ellipse rx="14.3836" ry="14.77" transform="matrix(0.987596 -0.157013 0.148713 0.98888 22.2079 60.3873)" fill="black"/>
<rect width="4.23048" height="46.9166" transform="matrix(0.987596 -0.157013 0.148713 0.98888 25.2581 12.3983)" fill="black"/>
<rect width="4.23048" height="35.6218" transform="matrix(0.987596 -0.157013 0.148713 0.98888 60.3618 18.2535)" fill="black"/>
<rect width="8.68825" height="38.0744" transform="matrix(-0.148713 -0.98888 0.987596 -0.157013 28.2297 32.1591)" fill="black"/>
<ellipse rx="14.3836" ry="14.77" transform="matrix(0.987596 -0.157013 0.148713 0.98888 55.6321 55.0734)" fill="black"/>
<rect width="4.23048" height="47.7854" transform="matrix(0.987596 -0.157013 0.148713 0.98888 58.6821 7.08435)" fill="black"/>
<rect width="8.68825" height="38.0744" transform="matrix(-0.148713 -0.98888 0.987596 -0.157013 28.2297 32.1591)" fill="black"/>
<rect width="8.68825" height="38.0744" transform="matrix(-0.148713 -0.98888 0.987596 -0.157013 26.4209 20.1308)" fill="black"/>
<ellipse rx="14.3836" ry="14.77" transform="matrix(0.987596 -0.157013 0.148713 0.98888 55.6321 55.0734)" fill="black"/>
<rect width="4.23048" height="46.9166" transform="matrix(0.987596 -0.157013 0.148713 0.98888 92.1062 1.7704)" fill="black"/>
<rect width="8.68825" height="38.0744" transform="matrix(-0.148713 -0.98888 0.987596 -0.157013 61.6538 26.8451)" fill="black"/>
<rect width="8.68825" height="38.0744" transform="matrix(-0.148713 -0.98888 0.987596 -0.157013 59.845 14.8168)" fill="black"/>
<ellipse rx="14.3836" ry="14.77" transform="matrix(0.987596 -0.157013 0.148713 0.98888 89.056 49.7594)" fill="black"/>
</svg>
