<svg width="83" height="98" viewBox="0 0 83 98" fill="none" xmlns="http://www.w3.org/2000/svg">
<path d="M77.1527 28.2582C76.7898 29.2432 75.599 30.301 73.0745 30.7067C70.6217 31.1008 67.3835 30.76 64.0082 29.4453C60.6329 28.1305 57.9879 26.1796 56.4049 24.2133C54.7755 22.1896 54.5653 20.5861 54.9282 19.6011C55.2912 18.6161 56.482 17.5583 59.0065 17.1526C61.4592 16.7584 64.6975 17.0992 68.0728 18.414C71.448 19.7288 74.093 21.6797 75.6761 23.6459C77.3054 25.6696 77.5157 27.2732 77.1527 28.2582Z" stroke="black" stroke-width="5"/>
<path d="M64.0885 56.4844C63.3627 58.4545 60.981 60.5701 55.9321 61.3814C51.0266 62.1697 44.55 61.4881 37.7995 58.8586C31.049 56.229 25.7589 52.3271 22.5928 48.3947C19.3342 44.3473 18.9137 41.1401 19.6396 39.1701C20.3654 37.2001 22.7471 35.0845 27.796 34.2732C32.7015 33.4849 39.1781 34.1665 45.9286 36.796C52.6791 39.4256 57.9692 43.3275 61.1353 47.2599C64.3939 51.3073 64.8144 54.5144 64.0885 56.4844Z" stroke="black" stroke-width="10"/>
<rect width="4.24281" height="63.0824" transform="matrix(0.931802 0.362967 -0.345737 0.938331 52.2579 19.6185)" fill="black"/>
<ellipse rx="14.4255" ry="8.37813" transform="matrix(0.931802 0.362967 -0.345737 0.938331 20.9597 75.1147)" fill="black"/>
</svg>
